<?xml version="1.0" encoding="UTF-8" standalone="no"?>
<svg
   viewBox="0 0 24 24"
   version="1.1"
   id="svg1"
   sodipodi:docname="piggy-bank-outline.svg"
   inkscape:export-filename="..\github\spese\icons\icon-512x512.png"
   inkscape:export-xdpi="2048"
   inkscape:export-ydpi="2048"
   inkscape:version="1.4 (86a8ad7, 2024-10-11)"
   xmlns:inkscape="http://www.inkscape.org/namespaces/inkscape"
   xmlns:sodipodi="http://sodipodi.sourceforge.net/DTD/sodipodi-0.dtd"
   xmlns="http://www.w3.org/2000/svg"
   xmlns:svg="http://www.w3.org/2000/svg">
  <defs
     id="defs1" />
  <sodipodi:namedview
     id="namedview1"
     pagecolor="#ffffff"
     bordercolor="#000000"
     borderopacity="0.25"
     inkscape:showpageshadow="2"
     inkscape:pageopacity="0.0"
     inkscape:pagecheckerboard="0"
     inkscape:deskcolor="#d1d1d1"
     inkscape:zoom="32.208333"
     inkscape:cx="11.968952"
     inkscape:cy="12.124191"
     inkscape:window-width="1920"
     inkscape:window-height="991"
     inkscape:window-x="-9"
     inkscape:window-y="-9"
     inkscape:window-maximized="1"
     inkscape:current-layer="svg1" />
  <rect
     style="fill:#ffffff;fill-opacity:1"
     id="rect1"
     width="24"
     height="24"
     x="0"
     y="0" />
  <path
     d="M15 10C15 9.45 15.45 9 16 9C16.55 9 17 9.45 17 10S16.55 11 16 11 15 10.55 15 10M8 9H13V7H8V9M22 7.5V14.47L19.18 15.41L17.5 21H12V19H10V21H4.5C4.5 21 2 12.54 2 9.5S4.46 4 7.5 4H12.5C13.41 2.79 14.86 2 16.5 2C17.33 2 18 2.67 18 3.5C18 3.71 17.96 3.9 17.88 4.08C17.74 4.42 17.62 4.81 17.56 5.23L19.83 7.5H22M20 9.5H19L15.5 6C15.5 5.35 15.59 4.71 15.76 4.09C14.79 4.34 14 5.06 13.67 6H7.5C5.57 6 4 7.57 4 9.5C4 11.38 5.22 16.15 6 19H8V17H14V19H16L17.56 13.85L20 13.03V9.5Z"
     id="path1" />
</svg>
